<svg xmlns="http://www.w3.org/2000/svg" viewBox="0 0 100 100">
  <rect width="100" height="100" rx="18" fill="#0b0b0c"/>
  <g stroke="#d4af37" stroke-width="3" stroke-linecap="round">
    <line x1="50" y1="8" x2="50" y2="16"/>
    <line x1="27" y1="15" x2="32" y2="21"/>
    <line x1="73" y1="15" x2="68" y2="21"/>
    <line x1="14" y1="36" x2="22" y2="36"/>
    <line x1="86" y1="36" x2="78" y2="36"/>
    <line x1="18" y1="58" x2="25" y2="55"/>
    <line x1="82" y1="58" x2="75" y2="55"/>
  </g>
  <path d="M50 20c-14 0-23 10.5-23 22 0 9 5 14.5 9.5 19 3 3 4.5 5.5 4.5 9h18c0-3.5 1.5-6 4.5-9 4.5-4.5 9.5-10 9.5-19 0-11.5-9-22-23-22z"
        fill="none" stroke="#d4af37" stroke-width="3.2"/>
  <g fill="#d4af37">
    <rect x="41" y="72" width="18" height="4.2" rx="1.4"/>
    <rect x="41" y="78" width="18" height="4.2" rx="1.4"/>
    <path d="M42 84h16c0 4.5-3.6 7-8 7s-8-2.5-8-7z"/>
  </g>
  <text x="50" y="60" text-anchor="middle" font-family="Cormorant Garamond, Georgia, serif" font-weight="700" font-size="22" fill="#d4af37">MS</text>
</svg>
